<svg width="27" height="27" viewBox="0 0 27 27" fill="none" xmlns="http://www.w3.org/2000/svg">
<path d="M10.2818 12.5932C13.5257 12.5932 16.1555 9.96359 16.1555 6.71956C16.1555 3.47553 13.5257 0.845703 10.2818 0.845703C7.03778 0.845703 4.40796 3.47553 4.40796 6.71956C4.41091 9.96238 7.03883 12.5903 10.2818 12.5932ZM10.2818 1.95712C12.912 1.95712 15.0441 4.08939 15.0441 6.71956C15.0441 9.34973 12.912 11.4818 10.2818 11.4818C7.65147 11.4818 5.51938 9.34973 5.51938 6.71956C5.52234 4.09043 7.65269 1.96008 10.2818 1.95712Z" fill="#FF2828"/>
<path d="M20.5621 20.5947C20.2556 20.5956 20.0072 20.8439 20.0063 21.1504V23.6567C20.0063 23.9636 20.2551 24.2124 20.5621 24.2124C20.869 24.2124 21.1178 23.9636 21.1178 23.6567V21.1504C21.1169 20.8439 20.8686 20.5956 20.5621 20.5947Z" fill="#FF2828"/>
<path d="M22.4628 20.5947C22.1564 20.5956 21.9081 20.8439 21.9072 21.1504V23.6567C21.9072 23.9636 22.156 24.2124 22.4628 24.2124C22.7699 24.2124 23.0186 23.9636 23.0186 23.6567V21.1504C23.0178 20.8439 22.7693 20.5956 22.4628 20.5947Z" fill="#FF2828"/>
<path d="M18.6672 20.5947C18.3607 20.5956 18.1124 20.8439 18.1116 21.1504V23.6567C18.1116 23.9636 18.3604 24.2124 18.6672 24.2124C18.9742 24.2124 19.223 23.9636 19.223 23.6567V21.1504C19.2221 20.8439 18.9737 20.5956 18.6672 20.5947Z" fill="#FF2828"/>
<path d="M24.5246 14.5435H23.0851V13.3822C23.0849 12.8789 22.6771 12.4712 22.1738 12.4707H18.9564C18.4531 12.4712 18.0454 12.8789 18.0449 13.3822V14.5435H16.6057C16.0463 14.5442 15.5277 14.8371 15.2386 15.3159C13.7542 14.394 12.0403 13.9086 10.2927 13.9156H10.276C7.73106 13.9213 5.36931 14.9105 3.61882 16.7109C1.84051 18.528 0.868168 21.0119 0.873557 23.7071C0.874427 24.0138 1.12268 24.2619 1.42918 24.2628L15.8943 24.2351V24.4185C15.8959 25.3785 16.6737 26.1563 17.6337 26.1579H23.4909C24.451 26.1563 25.2287 25.3785 25.2302 24.4185V17.5721C25.8949 17.2436 26.2459 16.5005 26.0778 15.778C25.9093 15.0558 25.266 14.5447 24.5246 14.5435ZM19.1509 13.5821H21.9737V14.5435H19.1509V13.5821ZM16.6057 15.6549H24.5246C24.7367 15.6553 24.9239 15.7935 24.9865 15.9964C25.0491 16.1993 24.9721 16.4192 24.7968 16.5384C24.757 16.5277 24.7158 16.5219 24.6746 16.5219C24.5597 16.5235 24.4477 16.5583 24.3521 16.6219H16.7725C16.6775 16.5567 16.565 16.5217 16.4501 16.5219C16.4086 16.5216 16.3676 16.5271 16.3279 16.5384C16.1516 16.4185 16.075 16.197 16.1389 15.9936C16.2027 15.7902 16.3926 15.6528 16.6057 15.6549ZM2.00167 23.1459C2.11849 20.962 2.96845 18.9671 4.41331 17.4831C5.95275 15.8994 8.03668 15.027 10.276 15.027H10.2927C11.9982 15.0173 13.6635 15.5421 15.0552 16.5275C15.1715 16.979 15.4776 17.358 15.8943 17.5666V23.1181L2.00167 23.1459ZM23.4909 25.0465H17.6393C17.4727 25.0466 17.313 24.9804 17.1951 24.8629C17.0772 24.745 17.0111 24.5852 17.0115 24.4185V17.7389H24.1246V24.4185C24.1181 24.765 23.8374 25.0435 23.4909 25.0465Z" fill="#FF2828"/>
</svg>
