<svg width="21" height="20" viewBox="0 0 21 20" fill="none" xmlns="http://www.w3.org/2000/svg">
<path d="M8.07386 3.07253C7.95306 2.95748 7.8013 2.90012 7.63739 2.90012C7.47349 2.90012 7.32173 2.95748 7.20093 3.07253C6.9568 3.30504 6.9568 3.68484 7.20093 3.91735L13.5878 10.0001L7.20093 16.0828C6.95679 16.3153 6.95679 16.6951 7.20093 16.9276C7.44229 17.1574 7.83241 17.1575 8.07379 16.9277L8.07386 16.9276L14.9168 10.4225L14.9169 10.4225C15.161 10.19 15.161 9.81016 14.9169 9.57765L14.9168 9.57758L8.07386 3.07253ZM8.07386 3.07253L8.00489 3.14494L8.07379 3.07247L8.07386 3.07253Z" fill="white" stroke="#666666" stroke-width="0.2"/>
</svg>
