<svg width="19" height="19" viewBox="0 0 19 19" fill="none" xmlns="http://www.w3.org/2000/svg">
<path d="M18.5475 18.3927L13.2172 12.8494C14.5768 11.4859 15.4191 9.60618 15.4191 7.53313C15.4191 3.37915 12.0399 0 7.88592 0C3.73193 0 0.352783 3.37915 0.352783 7.53313C0.352783 11.6871 3.73193 15.0663 7.88592 15.0663C9.70929 15.0663 11.3827 14.4145 12.687 13.3329L18.0302 18.8899C18.1005 18.9634 18.1945 19 18.2888 19C18.3785 19 18.4678 18.9666 18.5374 18.8999C18.6802 18.7625 18.6845 18.5355 18.5475 18.3927ZM7.88592 14.3488C4.1276 14.3488 1.07022 11.2915 1.07022 7.53313C1.07022 3.77482 4.1276 0.717441 7.88592 0.717441C11.6442 0.717441 14.7016 3.77482 14.7016 7.53313C14.7016 11.2915 11.6439 14.3488 7.88592 14.3488Z" fill="#666666"/>
</svg>
