<svg width="21" height="21" viewBox="0 0 21 21" fill="none" xmlns="http://www.w3.org/2000/svg">
<g clip-path="url(#clip0)">
<path d="M10.508 3.80017e-06C4.70864 -0.00487706 0.00476259 4.69252 -0.00011827 10.4919C-0.00499913 16.2912 4.6924 20.9951 10.4918 21C16.2903 20.9951 20.9909 16.2986 20.9999 10.5C20.9999 4.70388 16.3041 0.00488466 10.508 3.80017e-06ZM10.4918 19.2527C5.65786 19.2527 1.73907 15.3339 1.73907 10.5C1.73907 5.66611 5.65786 1.74731 10.4918 1.74731C15.324 1.75219 19.2396 5.66775 19.2444 10.5C19.2444 15.3339 15.3257 19.2527 10.4918 19.2527Z" fill="white"/>
<path d="M13.3282 9.98874C14.0304 9.59294 14.4099 8.8006 14.2791 8.00576C14.1165 6.77861 12.6537 6.31534 11.4996 6.21785V4.37305H10.3619V6.20161H9.59794V4.37305H8.46017V6.20161H6.16833V7.38003H7.02167C7.40365 7.38003 7.59055 7.4938 7.59055 7.80261V12.8657C7.59055 13.2883 7.37924 13.4183 7.15169 13.4183H6.28211V14.6211H8.49265V16.4903H9.63855V14.6211H10.4025V16.4903H11.5159V14.6211H11.7597C14.1002 14.6211 14.8804 13.4752 14.8804 11.9149C14.8617 10.9949 14.2238 10.2033 13.3282 9.98874ZM9.5979 7.45316H10.4106C10.9795 7.45316 12.101 7.55069 12.101 8.47715C12.14 9.0818 11.702 9.61169 11.1014 9.68806H9.5979V7.45316ZM10.8576 13.3045V13.2964H9.5979V10.8583H11.0608C11.4021 10.8583 12.6861 10.9721 12.6861 11.8823C12.6861 12.7925 12.0766 13.3045 10.8576 13.3045Z" fill="white"/>
</g>
<defs>
<clipPath id="clip0">
<rect width="21" height="21" fill="white"/>
</clipPath>
</defs>
</svg>
