<svg width="22" height="19" viewBox="0 0 22 19" fill="none" xmlns="http://www.w3.org/2000/svg">
<path d="M18.8351 4.09344C18.5552 3.79587 18.116 3.75199 17.7889 3.98904C16.5566 4.88232 10.3755 9.37418 9.71121 10.0806C8.74788 11.1051 8.74788 12.772 9.71121 13.7966C10.1929 14.3088 10.8256 14.5649 11.4583 14.5649C12.091 14.5649 12.7237 14.3088 13.2054 13.7966C13.8696 13.0901 18.0933 6.51667 18.9333 5.20613C19.1561 4.85828 19.1149 4.3911 18.8351 4.09344ZM12.0406 12.5579C11.7195 12.8994 11.197 12.8994 10.8759 12.5579C10.5548 12.2165 10.5548 11.6609 10.8758 11.3194C11.1339 11.0482 12.8888 9.71716 15.0479 8.12105C13.5472 10.4173 12.2956 12.2835 12.0406 12.5579Z" fill="white"/>
<path d="M4.71444 16.0142L3.69774 16.5416C2.95381 15.1297 2.56364 13.5537 2.56364 11.9404C2.56364 10.7584 2.76859 9.62633 3.14261 8.58227L4.30759 9.17654C4.42248 9.23513 4.54375 9.2629 4.66321 9.2629C4.97012 9.2629 5.26475 9.07963 5.40636 8.76563C5.60303 8.3295 5.43008 7.80631 5.01994 7.59711L3.86974 7.01038C5.29934 4.53083 7.77281 2.80211 10.6347 2.5214V3.83873C10.6347 4.32247 11.0034 4.71459 11.4582 4.71459C11.9131 4.71459 12.2818 4.32247 12.2818 3.83873V2.52075C13.263 2.61573 14.2124 2.88147 15.1137 3.31414C15.5282 3.51318 16.016 3.31703 16.2032 2.87626C16.3903 2.43535 16.206 1.91663 15.7914 1.71759C14.4256 1.06197 12.9678 0.729492 11.4582 0.729492C8.64241 0.729492 5.99517 1.8956 4.00407 4.01307C2.01305 6.13058 0.916504 8.94588 0.916504 11.9404C0.916504 14.1533 1.5341 16.3054 2.70254 18.164C2.85992 18.4143 3.12013 18.5532 3.38771 18.5532C3.50935 18.5532 3.63256 18.5245 3.74831 18.4644L5.43663 17.5886C5.84545 17.3765 6.01518 16.8522 5.81576 16.4174C5.61633 15.9827 5.12326 15.8022 4.71444 16.0142Z" fill="white"/>
<path d="M21.0708 7.33118C20.8837 6.89032 20.396 6.69413 19.9813 6.89325C19.5668 7.09229 19.3824 7.61102 19.5696 8.05188C20.0893 9.27624 20.3528 10.5842 20.3528 11.9394C20.3528 13.5551 19.9614 15.1336 19.2153 16.5472L18.1538 16.0096C17.7432 15.8017 17.2517 15.9871 17.0561 16.4239C16.8606 16.8606 17.035 17.3832 17.4457 17.5912L19.1752 18.4671C19.2889 18.5246 19.4095 18.5522 19.5288 18.5522C19.7965 18.5522 20.0567 18.4131 20.2139 18.163C21.3824 16.3044 22 14.1522 22 11.9394C22 10.334 21.6873 8.78357 21.0708 7.33118Z" fill="white"/>
</svg>
