<svg width="21" height="22" viewBox="0 0 21 22" fill="none" xmlns="http://www.w3.org/2000/svg">
<g clip-path="url(#clip0)">
<path d="M17.9246 13.8244C16.781 12.6671 15.4198 11.8103 13.9346 11.2917C15.5253 10.1829 16.5703 8.32736 16.5703 6.22919C16.5703 2.84181 13.8472 0.0859375 10.5 0.0859375C7.15284 0.0859375 4.42969 2.84181 4.42969 6.22919C4.42969 8.32736 5.47472 10.1829 7.06543 11.2917C5.58026 11.8103 4.21903 12.6671 3.07539 13.8244C1.09221 15.8315 0 18.4999 0 21.3383H1.64062C1.64062 16.3945 5.61492 12.3724 10.5 12.3724C15.3851 12.3724 19.3594 16.3945 19.3594 21.3383H21C21 18.4999 19.9078 15.8315 17.9246 13.8244ZM10.5 10.7121C8.05748 10.7121 6.07031 8.70111 6.07031 6.22919C6.07031 3.75728 8.05748 1.74628 10.5 1.74628C12.9425 1.74628 14.9297 3.75728 14.9297 6.22919C14.9297 8.70111 12.9425 10.7121 10.5 10.7121Z" fill="white"/>
</g>
<defs>
<clipPath id="clip0">
<rect width="21" height="21.2523" fill="white" transform="translate(0 0.0859375)"/>
</clipPath>
</defs>
</svg>
