<?xml version="1.0" encoding="utf-8"?>
<!-- Generator: Adobe Illustrator 17.0.0, SVG Export Plug-In . SVG Version: 6.00 Build 0)  -->
<!DOCTYPE svg PUBLIC "-//W3C//DTD SVG 1.1//EN" "http://www.w3.org/Graphics/SVG/1.1/DTD/svg11.dtd">
<svg version="1.1" id="Layer_1" xmlns="http://www.w3.org/2000/svg" xmlns:xlink="http://www.w3.org/1999/xlink" x="0px" y="0px"
	 width="21px" height="21px" viewBox="237.5 237.5 21 21" enable-background="new 237.5 237.5 21 21" xml:space="preserve">
<path fill="#FFFFFF" d="M238.769,256.499c0,1.011,0.875,1.831,1.934,1.831h11.351c0.949,0,1.738-0.659,1.892-1.524
	c0.912-0.142,1.61-0.898,1.61-1.808v-8.248h0.923c0.064,0.001,0.127-0.016,0.182-0.05l1.688-1.096
	c0.095-0.061,0.151-0.166,0.151-0.279c0-0.112-0.057-0.217-0.151-0.279l-1.688-1.107c-0.053-0.038-0.116-0.06-0.182-0.063h-0.923
	v-1.818c-0.008-0.112-0.062-0.215-0.148-0.287l-3.842-3.914c-0.021-0.031-0.048-0.058-0.078-0.08l-0.01-0.01
	c-0.063-0.063-0.149-0.099-0.238-0.099h-8.955c-0.949,0-1.745,0.66-1.899,1.524c-0.912,0.142-1.617,0.898-1.617,1.808V256.499z
	 M244.434,246.084v-1.541h11.705v1.541H244.434z M256.806,245.81v-0.968l0.743,0.484L256.806,245.81z M251.641,238.87l2.763,2.84
	h-2.318c-0.116,0.003-0.228-0.041-0.311-0.121c-0.084-0.08-0.132-0.19-0.134-0.306V238.87z M242.285,238.336h8.689v2.947
	c0.005,0.609,0.503,1.098,1.112,1.093h2.804v1.5h-10.772c-0.191,0.007-0.344,0.161-0.35,0.352v0.043l-0.992-0.02h-0.003
	c-0.186,0.005-0.334,0.158-0.333,0.344l0.01,1.45c0.001,0.183,0.15,0.331,0.333,0.33h0.984v0.049c0,0.184,0.166,0.326,0.35,0.326
	h0.704l-0.005,0.5c-0.003,0.191,0.068,0.375,0.199,0.514c0.112,0.12,0.268,0.19,0.432,0.195h4.046c0.184,0,0.333-0.149,0.333-0.333
	s-0.149-0.333-0.333-0.333h-4.009c-0.001-0.042-0.001-0.021-0.001-0.026l0.005-0.516h9.401v8.248c0,0.643-0.562,1.166-1.253,1.166
	h-11.352c-0.691,0-1.266-0.523-1.266-1.166v-15.445c0-0.017,0.011-0.034,0.011-0.052c0.001-0.014,0.001-0.029,0-0.043
	C241.054,238.835,241.609,238.336,242.285,238.336z M243.768,245.709h-0.653l-0.014-0.78l0.667,0.008V245.709z M239.436,241.001
	c0-0.534,0.417-0.986,0.916-1.123v15.121c0,1.011,0.874,1.832,1.933,1.832h10.971c-0.154,0.5-0.634,0.833-1.201,0.833h-11.351
	c-0.691,0-1.267-0.521-1.267-1.165V241.001z"/>
<path fill="#FFFFFF" d="M242.787,249.5h5.479c0.184,0,0.333-0.149,0.333-0.333c0-0.184-0.149-0.333-0.333-0.333h-5.479
	c-0.184,0-0.333,0.149-0.333,0.333C242.454,249.35,242.603,249.5,242.787,249.5z"/>
<path fill="#FFFFFF" d="M242.787,251.124h9.535c0.184,0,0.333-0.149,0.333-0.333c0-0.184-0.149-0.333-0.333-0.333h-9.535
	c-0.184,0-0.333,0.149-0.333,0.333C242.454,250.975,242.603,251.124,242.787,251.124z"/>
<path fill="#FFFFFF" d="M242.787,252.749h9.535c0.184,0,0.333-0.149,0.333-0.333s-0.149-0.333-0.333-0.333h-9.535
	c-0.184,0-0.333,0.149-0.333,0.333S242.603,252.749,242.787,252.749z"/>
<path fill="#FFFFFF" d="M242.787,254.373h9.535c0.184,0,0.333-0.149,0.333-0.333s-0.149-0.333-0.333-0.333h-9.535
	c-0.184,0-0.333,0.149-0.333,0.333S242.603,254.373,242.787,254.373z"/>
</svg>
