<svg width="23" height="23" viewBox="0 0 23 23" fill="none" xmlns="http://www.w3.org/2000/svg">
<mask id="path-1-outside-1" maskUnits="userSpaceOnUse" x="0.00012207" y="-0.0849609" width="23" height="23" fill="black">
<rect fill="white" x="0.00012207" y="-0.0849609" width="23" height="23"/>
<path d="M21.092 9.38053L19.6057 9.12535C19.4508 8.61948 19.2518 8.13152 19.0085 7.66594L19.8843 6.42589C20.2559 5.89763 20.1984 5.17688 19.7428 4.72026L18.4246 3.38619C18.1768 3.1355 17.8495 2.99672 17.5 2.99672C17.2258 2.99672 16.9648 3.08177 16.7436 3.24294L15.5139 4.12933C15.0361 3.87416 14.5362 3.66375 14.0187 3.50706L13.771 2.02079C13.6648 1.38062 13.1207 0.915039 12.4793 0.915039H10.617C9.97554 0.915039 9.43145 1.38062 9.32528 2.02079L9.06871 3.54288C8.57327 3.69956 8.0911 3.90549 7.63105 4.15619L6.41457 3.2698C6.19339 3.10863 5.92798 3.02358 5.65372 3.02358C5.30426 3.02358 4.97249 3.16236 4.72919 3.41305L3.40654 4.74712C2.95534 5.20374 2.89341 5.9245 3.26499 6.45275L4.1497 7.71071C3.90641 8.18076 3.71177 8.66873 3.56137 9.1746L2.09274 9.42529C1.46017 9.53274 1.00012 10.0834 1.00012 10.7325V12.6172C1.00012 13.2663 1.46017 13.817 2.09274 13.9244L3.59676 14.1841C3.75158 14.6854 3.95507 15.1734 4.20279 15.639L3.33134 16.8656C2.95976 17.3939 3.01727 18.1146 3.4729 18.5712L4.79112 19.9053C5.03884 20.156 5.36619 20.2948 5.71565 20.2948C5.98991 20.2948 6.2509 20.2097 6.47208 20.0486L7.7151 19.1532C8.16188 19.3905 8.63078 19.583 9.11295 19.7352L9.36067 21.2394C9.46684 21.8795 10.0109 22.3451 10.6524 22.3451H12.5191C13.1605 22.3451 13.7046 21.8795 13.8108 21.2394L14.0629 19.7352C14.5628 19.5785 15.045 19.3771 15.505 19.1308L16.7303 20.0172C16.9515 20.1784 17.2169 20.2634 17.4912 20.2634C17.8407 20.2634 18.168 20.1247 18.4157 19.874L19.7339 18.5399C20.1851 18.0833 20.2471 17.3625 19.8755 16.8343L18.9996 15.5897C19.2429 15.1197 19.4464 14.6317 19.5968 14.1303L21.0831 13.8796C21.7157 13.7722 22.1758 13.2216 22.1758 12.5724V10.6877C22.1846 10.0386 21.7245 9.48797 21.092 9.38053ZM20.9902 12.5724C20.9902 12.6306 20.9504 12.6799 20.8929 12.6888L19.035 13.0022C18.8006 13.0425 18.6148 13.2171 18.5573 13.4454C18.3892 14.1035 18.1326 14.7347 17.7876 15.3211C17.6681 15.5271 17.677 15.7822 17.8141 15.9792L18.9067 17.5371C18.9377 17.5819 18.9333 17.649 18.8935 17.6893L17.5752 19.0234C17.5443 19.0547 17.5133 19.0592 17.4912 19.0592C17.4646 19.0592 17.4425 19.0503 17.4248 19.0368L15.8899 17.9311C15.6996 17.7923 15.4431 17.7833 15.2396 17.9042C14.6601 18.2534 14.0364 18.513 13.3861 18.6832C13.1561 18.7414 12.9836 18.9339 12.9482 19.1667L12.6341 21.0469C12.6253 21.1051 12.5766 21.1454 12.5191 21.1454H10.6568C10.5993 21.1454 10.5506 21.1051 10.5418 21.0469L10.2321 19.1667C10.1923 18.9294 10.0198 18.7414 9.79418 18.6832C9.16161 18.5175 8.55116 18.2624 7.98052 17.9311C7.88762 17.8774 7.78145 17.8505 7.67971 17.8505C7.56028 17.8505 7.43642 17.8863 7.33467 17.9624L5.78642 19.0771C5.76431 19.0905 5.74219 19.0995 5.72007 19.0995C5.70238 19.0995 5.66699 19.095 5.63602 19.0637L4.3178 17.7296C4.27799 17.6893 4.27356 17.6267 4.30453 17.5774L5.39273 16.0329C5.52986 15.836 5.5387 15.5763 5.41927 15.3704C5.07423 14.7884 4.80882 14.1572 4.64072 13.4991C4.57879 13.2708 4.393 13.0962 4.16297 13.0559L2.2918 12.7336C2.2343 12.7246 2.19449 12.6754 2.19449 12.6172V10.7325C2.19449 10.6743 2.2343 10.6251 2.2918 10.6161L4.13643 10.3027C4.37088 10.2624 4.5611 10.0879 4.6186 9.85506C4.78227 9.19698 5.03442 8.56129 5.37503 7.97484C5.49447 7.76891 5.4812 7.51373 5.34407 7.32123L4.2426 5.75438C4.21163 5.70961 4.21606 5.64246 4.25587 5.60217L5.57409 4.26811C5.60506 4.23677 5.63602 4.23229 5.65814 4.23229C5.68468 4.23229 5.7068 4.24125 5.72449 4.25468L7.25063 5.35595C7.44526 5.49473 7.70183 5.50368 7.90531 5.38281C8.48038 5.03363 9.1041 4.76502 9.75437 4.59491C9.97997 4.53223 10.1525 4.34421 10.1923 4.11142L10.5108 2.21777C10.5196 2.15957 10.5683 2.11928 10.6258 2.11928H12.4881C12.5456 2.11928 12.5943 2.15957 12.6031 2.21777L12.9128 4.08456C12.9526 4.32183 13.1251 4.51433 13.3552 4.57252C14.0231 4.74264 14.6601 5.00677 15.2529 5.36043C15.4563 5.4813 15.7085 5.47235 15.9031 5.33357L17.4293 4.22334C17.4514 4.20991 17.4735 4.20096 17.4956 4.20096C17.5133 4.20096 17.5487 4.20543 17.5797 4.23677L18.8979 5.57083C18.9377 5.61112 18.9421 5.6738 18.9112 5.72304L17.8185 7.27647C17.6814 7.46897 17.6726 7.72862 17.792 7.93455C18.137 8.521 18.3936 9.15222 18.5617 9.81029C18.6192 10.0431 18.8094 10.2177 19.0394 10.2535L20.8973 10.5713C20.9548 10.5803 20.9947 10.6295 20.9947 10.6877V12.5724H20.9902Z"/>
</mask>
<path d="M21.092 9.38053L19.6057 9.12535C19.4508 8.61948 19.2518 8.13152 19.0085 7.66594L19.8843 6.42589C20.2559 5.89763 20.1984 5.17688 19.7428 4.72026L18.4246 3.38619C18.1768 3.1355 17.8495 2.99672 17.5 2.99672C17.2258 2.99672 16.9648 3.08177 16.7436 3.24294L15.5139 4.12933C15.0361 3.87416 14.5362 3.66375 14.0187 3.50706L13.771 2.02079C13.6648 1.38062 13.1207 0.915039 12.4793 0.915039H10.617C9.97554 0.915039 9.43145 1.38062 9.32528 2.02079L9.06871 3.54288C8.57327 3.69956 8.0911 3.90549 7.63105 4.15619L6.41457 3.2698C6.19339 3.10863 5.92798 3.02358 5.65372 3.02358C5.30426 3.02358 4.97249 3.16236 4.72919 3.41305L3.40654 4.74712C2.95534 5.20374 2.89341 5.9245 3.26499 6.45275L4.1497 7.71071C3.90641 8.18076 3.71177 8.66873 3.56137 9.1746L2.09274 9.42529C1.46017 9.53274 1.00012 10.0834 1.00012 10.7325V12.6172C1.00012 13.2663 1.46017 13.817 2.09274 13.9244L3.59676 14.1841C3.75158 14.6854 3.95507 15.1734 4.20279 15.639L3.33134 16.8656C2.95976 17.3939 3.01727 18.1146 3.4729 18.5712L4.79112 19.9053C5.03884 20.156 5.36619 20.2948 5.71565 20.2948C5.98991 20.2948 6.2509 20.2097 6.47208 20.0486L7.7151 19.1532C8.16188 19.3905 8.63078 19.583 9.11295 19.7352L9.36067 21.2394C9.46684 21.8795 10.0109 22.3451 10.6524 22.3451H12.5191C13.1605 22.3451 13.7046 21.8795 13.8108 21.2394L14.0629 19.7352C14.5628 19.5785 15.045 19.3771 15.505 19.1308L16.7303 20.0172C16.9515 20.1784 17.2169 20.2634 17.4912 20.2634C17.8407 20.2634 18.168 20.1247 18.4157 19.874L19.7339 18.5399C20.1851 18.0833 20.2471 17.3625 19.8755 16.8343L18.9996 15.5897C19.2429 15.1197 19.4464 14.6317 19.5968 14.1303L21.0831 13.8796C21.7157 13.7722 22.1758 13.2216 22.1758 12.5724V10.6877C22.1846 10.0386 21.7245 9.48797 21.092 9.38053ZM20.9902 12.5724C20.9902 12.6306 20.9504 12.6799 20.8929 12.6888L19.035 13.0022C18.8006 13.0425 18.6148 13.2171 18.5573 13.4454C18.3892 14.1035 18.1326 14.7347 17.7876 15.3211C17.6681 15.5271 17.677 15.7822 17.8141 15.9792L18.9067 17.5371C18.9377 17.5819 18.9333 17.649 18.8935 17.6893L17.5752 19.0234C17.5443 19.0547 17.5133 19.0592 17.4912 19.0592C17.4646 19.0592 17.4425 19.0503 17.4248 19.0368L15.8899 17.9311C15.6996 17.7923 15.4431 17.7833 15.2396 17.9042C14.6601 18.2534 14.0364 18.513 13.3861 18.6832C13.1561 18.7414 12.9836 18.9339 12.9482 19.1667L12.6341 21.0469C12.6253 21.1051 12.5766 21.1454 12.5191 21.1454H10.6568C10.5993 21.1454 10.5506 21.1051 10.5418 21.0469L10.2321 19.1667C10.1923 18.9294 10.0198 18.7414 9.79418 18.6832C9.16161 18.5175 8.55116 18.2624 7.98052 17.9311C7.88762 17.8774 7.78145 17.8505 7.67971 17.8505C7.56028 17.8505 7.43642 17.8863 7.33467 17.9624L5.78642 19.0771C5.76431 19.0905 5.74219 19.0995 5.72007 19.0995C5.70238 19.0995 5.66699 19.095 5.63602 19.0637L4.3178 17.7296C4.27799 17.6893 4.27356 17.6267 4.30453 17.5774L5.39273 16.0329C5.52986 15.836 5.5387 15.5763 5.41927 15.3704C5.07423 14.7884 4.80882 14.1572 4.64072 13.4991C4.57879 13.2708 4.393 13.0962 4.16297 13.0559L2.2918 12.7336C2.2343 12.7246 2.19449 12.6754 2.19449 12.6172V10.7325C2.19449 10.6743 2.2343 10.6251 2.2918 10.6161L4.13643 10.3027C4.37088 10.2624 4.5611 10.0879 4.6186 9.85506C4.78227 9.19698 5.03442 8.56129 5.37503 7.97484C5.49447 7.76891 5.4812 7.51373 5.34407 7.32123L4.2426 5.75438C4.21163 5.70961 4.21606 5.64246 4.25587 5.60217L5.57409 4.26811C5.60506 4.23677 5.63602 4.23229 5.65814 4.23229C5.68468 4.23229 5.7068 4.24125 5.72449 4.25468L7.25063 5.35595C7.44526 5.49473 7.70183 5.50368 7.90531 5.38281C8.48038 5.03363 9.1041 4.76502 9.75437 4.59491C9.97997 4.53223 10.1525 4.34421 10.1923 4.11142L10.5108 2.21777C10.5196 2.15957 10.5683 2.11928 10.6258 2.11928H12.4881C12.5456 2.11928 12.5943 2.15957 12.6031 2.21777L12.9128 4.08456C12.9526 4.32183 13.1251 4.51433 13.3552 4.57252C14.0231 4.74264 14.6601 5.00677 15.2529 5.36043C15.4563 5.4813 15.7085 5.47235 15.9031 5.33357L17.4293 4.22334C17.4514 4.20991 17.4735 4.20096 17.4956 4.20096C17.5133 4.20096 17.5487 4.20543 17.5797 4.23677L18.8979 5.57083C18.9377 5.61112 18.9421 5.6738 18.9112 5.72304L17.8185 7.27647C17.6814 7.46897 17.6726 7.72862 17.792 7.93455C18.137 8.521 18.3936 9.15222 18.5617 9.81029C18.6192 10.0431 18.8094 10.2177 19.0394 10.2535L20.8973 10.5713C20.9548 10.5803 20.9947 10.6295 20.9947 10.6877V12.5724H20.9902Z" fill="white"/>
<path d="M21.092 9.38053L19.6057 9.12535C19.4508 8.61948 19.2518 8.13152 19.0085 7.66594L19.8843 6.42589C20.2559 5.89763 20.1984 5.17688 19.7428 4.72026L18.4246 3.38619C18.1768 3.1355 17.8495 2.99672 17.5 2.99672C17.2258 2.99672 16.9648 3.08177 16.7436 3.24294L15.5139 4.12933C15.0361 3.87416 14.5362 3.66375 14.0187 3.50706L13.771 2.02079C13.6648 1.38062 13.1207 0.915039 12.4793 0.915039H10.617C9.97554 0.915039 9.43145 1.38062 9.32528 2.02079L9.06871 3.54288C8.57327 3.69956 8.0911 3.90549 7.63105 4.15619L6.41457 3.2698C6.19339 3.10863 5.92798 3.02358 5.65372 3.02358C5.30426 3.02358 4.97249 3.16236 4.72919 3.41305L3.40654 4.74712C2.95534 5.20374 2.89341 5.9245 3.26499 6.45275L4.1497 7.71071C3.90641 8.18076 3.71177 8.66873 3.56137 9.1746L2.09274 9.42529C1.46017 9.53274 1.00012 10.0834 1.00012 10.7325V12.6172C1.00012 13.2663 1.46017 13.817 2.09274 13.9244L3.59676 14.1841C3.75158 14.6854 3.95507 15.1734 4.20279 15.639L3.33134 16.8656C2.95976 17.3939 3.01727 18.1146 3.4729 18.5712L4.79112 19.9053C5.03884 20.156 5.36619 20.2948 5.71565 20.2948C5.98991 20.2948 6.2509 20.2097 6.47208 20.0486L7.7151 19.1532C8.16188 19.3905 8.63078 19.583 9.11295 19.7352L9.36067 21.2394C9.46684 21.8795 10.0109 22.3451 10.6524 22.3451H12.5191C13.1605 22.3451 13.7046 21.8795 13.8108 21.2394L14.0629 19.7352C14.5628 19.5785 15.045 19.3771 15.505 19.1308L16.7303 20.0172C16.9515 20.1784 17.2169 20.2634 17.4912 20.2634C17.8407 20.2634 18.168 20.1247 18.4157 19.874L19.7339 18.5399C20.1851 18.0833 20.2471 17.3625 19.8755 16.8343L18.9996 15.5897C19.2429 15.1197 19.4464 14.6317 19.5968 14.1303L21.0831 13.8796C21.7157 13.7722 22.1758 13.2216 22.1758 12.5724V10.6877C22.1846 10.0386 21.7245 9.48797 21.092 9.38053ZM20.9902 12.5724C20.9902 12.6306 20.9504 12.6799 20.8929 12.6888L19.035 13.0022C18.8006 13.0425 18.6148 13.2171 18.5573 13.4454C18.3892 14.1035 18.1326 14.7347 17.7876 15.3211C17.6681 15.5271 17.677 15.7822 17.8141 15.9792L18.9067 17.5371C18.9377 17.5819 18.9333 17.649 18.8935 17.6893L17.5752 19.0234C17.5443 19.0547 17.5133 19.0592 17.4912 19.0592C17.4646 19.0592 17.4425 19.0503 17.4248 19.0368L15.8899 17.9311C15.6996 17.7923 15.4431 17.7833 15.2396 17.9042C14.6601 18.2534 14.0364 18.513 13.3861 18.6832C13.1561 18.7414 12.9836 18.9339 12.9482 19.1667L12.6341 21.0469C12.6253 21.1051 12.5766 21.1454 12.5191 21.1454H10.6568C10.5993 21.1454 10.5506 21.1051 10.5418 21.0469L10.2321 19.1667C10.1923 18.9294 10.0198 18.7414 9.79418 18.6832C9.16161 18.5175 8.55116 18.2624 7.98052 17.9311C7.88762 17.8774 7.78145 17.8505 7.67971 17.8505C7.56028 17.8505 7.43642 17.8863 7.33467 17.9624L5.78642 19.0771C5.76431 19.0905 5.74219 19.0995 5.72007 19.0995C5.70238 19.0995 5.66699 19.095 5.63602 19.0637L4.3178 17.7296C4.27799 17.6893 4.27356 17.6267 4.30453 17.5774L5.39273 16.0329C5.52986 15.836 5.5387 15.5763 5.41927 15.3704C5.07423 14.7884 4.80882 14.1572 4.64072 13.4991C4.57879 13.2708 4.393 13.0962 4.16297 13.0559L2.2918 12.7336C2.2343 12.7246 2.19449 12.6754 2.19449 12.6172V10.7325C2.19449 10.6743 2.2343 10.6251 2.2918 10.6161L4.13643 10.3027C4.37088 10.2624 4.5611 10.0879 4.6186 9.85506C4.78227 9.19698 5.03442 8.56129 5.37503 7.97484C5.49447 7.76891 5.4812 7.51373 5.34407 7.32123L4.2426 5.75438C4.21163 5.70961 4.21606 5.64246 4.25587 5.60217L5.57409 4.26811C5.60506 4.23677 5.63602 4.23229 5.65814 4.23229C5.68468 4.23229 5.7068 4.24125 5.72449 4.25468L7.25063 5.35595C7.44526 5.49473 7.70183 5.50368 7.90531 5.38281C8.48038 5.03363 9.1041 4.76502 9.75437 4.59491C9.97997 4.53223 10.1525 4.34421 10.1923 4.11142L10.5108 2.21777C10.5196 2.15957 10.5683 2.11928 10.6258 2.11928H12.4881C12.5456 2.11928 12.5943 2.15957 12.6031 2.21777L12.9128 4.08456C12.9526 4.32183 13.1251 4.51433 13.3552 4.57252C14.0231 4.74264 14.6601 5.00677 15.2529 5.36043C15.4563 5.4813 15.7085 5.47235 15.9031 5.33357L17.4293 4.22334C17.4514 4.20991 17.4735 4.20096 17.4956 4.20096C17.5133 4.20096 17.5487 4.20543 17.5797 4.23677L18.8979 5.57083C18.9377 5.61112 18.9421 5.6738 18.9112 5.72304L17.8185 7.27647C17.6814 7.46897 17.6726 7.72862 17.792 7.93455C18.137 8.521 18.3936 9.15222 18.5617 9.81029C18.6192 10.0431 18.8094 10.2177 19.0394 10.2535L20.8973 10.5713C20.9548 10.5803 20.9947 10.6295 20.9947 10.6877V12.5724H20.9902Z" stroke="white" stroke-width="0.3" mask="url(#path-1-outside-1)"/>
<path d="M11.5902 6.92793C9.02654 6.92793 6.94569 9.03508 6.94569 11.6274C6.94569 14.2197 9.02654 16.3268 11.5902 16.3268C14.1539 16.3268 16.2348 14.2197 16.2348 11.6274C16.2348 9.03508 14.1539 6.92793 11.5902 6.92793ZM11.5902 14.9681C9.77018 14.9681 8.29005 13.4715 8.29005 11.6274C8.29005 9.78326 9.77018 8.28665 11.5902 8.28665C13.4103 8.28665 14.8904 9.78326 14.8904 11.6274C14.8904 13.4715 13.4103 14.9681 11.5902 14.9681Z" fill="white" stroke="white" stroke-width="0.15"/>
</svg>
