<svg width="22" height="23" viewBox="0 0 22 23" fill="none" xmlns="http://www.w3.org/2000/svg">
<path d="M21.25 11.5238C21.25 17.2662 16.6525 21.906 11 21.906C5.3475 21.906 0.75 17.2662 0.75 11.5238C0.75 5.78139 5.3475 1.1416 11 1.1416C16.6525 1.1416 21.25 5.78139 21.25 11.5238Z" stroke="white" stroke-width="1.5"/>
<g clip-path="url(#clip0)">
<path d="M3.56669 21.5841V21.6841H3.66669H4.81252H4.91252V21.5841C4.91252 18.1854 7.64457 15.4223 11 15.4223C14.3555 15.4223 17.0875 18.1854 17.0875 21.5841V21.6841H17.1875H18.3334H18.4334V21.5841C18.4334 19.5756 17.6603 17.6867 16.2566 16.2661L16.1855 16.3363L16.2566 16.2661C15.493 15.4933 14.592 14.9096 13.6093 14.5376C14.6594 13.7356 15.3396 12.4625 15.3396 11.0317C15.3396 8.61185 13.3941 6.64121 11 6.64121C8.60597 6.64121 6.66044 8.61185 6.66044 11.0317C6.66044 12.4625 7.34062 13.7356 8.39081 14.5376C7.40807 14.9096 6.50706 15.4933 5.74345 16.2661L5.81458 16.3363L5.74345 16.2661C4.33975 17.6867 3.56669 19.5756 3.56669 21.5841ZM11 14.0627C9.35048 14.0627 8.00627 12.7041 8.00627 11.0317C8.00627 9.35942 9.35048 8.00081 11 8.00081C12.6496 8.00081 13.9938 9.35942 13.9938 11.0317C13.9938 12.7041 12.6496 14.0627 11 14.0627Z" fill="white" stroke="white" stroke-width="0.2"/>
</g>
<defs>
<clipPath id="clip0">
<rect width="14.6667" height="14.8429" fill="white" transform="translate(3.66669 4.10254)"/>
</clipPath>
</defs>
</svg>
