<svg width="19" height="20" viewBox="0 0 19 20" fill="none" xmlns="http://www.w3.org/2000/svg">
<g clip-path="url(#clip0)">
<path d="M15.0293 9.90859C13.8015 9.90859 12.8027 10.9194 12.8027 12.1619C12.8027 13.4044 13.8015 14.4152 15.0293 14.4152H18.1836C18.1961 14.4152 18.2084 14.4139 18.2209 14.4133C18.2332 14.4139 18.2453 14.4152 18.2578 14.4152C18.6677 14.4152 19 14.0789 19 13.6641V7.76791C19 6.76796 18.5143 5.8811 17.7696 5.33471L15.2447 1.14279C15.1417 0.971839 14.9756 0.84956 14.7832 0.803141C14.5907 0.756648 14.3879 0.789884 14.2198 0.895415L12.3578 2.06398L11.5181 0.625843C11.4171 0.452939 11.252 0.32818 11.0595 0.279359C10.867 0.230537 10.6632 0.26182 10.4936 0.366074L3.34388 4.76349H2.22656C1.82351 4.76349 1.49447 4.43668 1.48459 4.03116C1.49447 3.62564 1.82351 3.29884 2.22656 3.29884H3.5996C4.00951 3.29884 4.34179 2.96257 4.34179 2.54773C4.34179 2.1329 4.00951 1.79663 3.5996 1.79663H2.22656C1.17644 1.79663 0.293869 2.53624 0.0604882 3.52774C0.0216718 3.61884 0 3.71912 0 3.82461V4.01239V4.04994V16.4807C0 18.1374 1.33178 19.4851 2.96874 19.4851H16.0312C17.3111 19.4851 18.4431 18.66 18.8479 17.432C18.9776 17.0385 18.7675 16.613 18.3787 16.4818C17.9899 16.3505 17.5695 16.5631 17.4398 16.9566C17.2374 17.5705 16.6714 17.9829 16.0312 17.9829H2.96874C2.15026 17.9829 1.48437 17.309 1.48437 16.4807V6.13685C1.71664 6.22022 1.96642 6.2657 2.22656 6.2657H16.0312C16.8497 6.2657 17.5156 6.93959 17.5156 7.76791V9.90859H15.0293ZM17.5156 12.913H15.0293C14.62 12.913 14.2871 12.5761 14.2871 12.1619C14.2871 11.7477 14.62 11.4108 15.0293 11.4108H17.5156V12.913ZM6.202 4.76353L10.6224 2.04479L11.4127 3.39832C11.4279 3.43531 11.4454 3.47178 11.4669 3.50693C11.483 3.53326 11.5009 3.55778 11.5196 3.58136L12.2098 4.76353H6.202ZM13.934 4.76349L13.1131 3.35757L14.3665 2.57098L15.6871 4.76349H13.934Z" fill="white"/>
</g>
<defs>
<clipPath id="clip0">
<rect width="19" height="19.2283" fill="white" transform="matrix(-1 0 0 1 19 0.256836)"/>
</clipPath>
</defs>
</svg>
