<svg width="23" height="23" viewBox="0 0 23 23" fill="none" xmlns="http://www.w3.org/2000/svg">
<path d="M8.43875 10.7857C11.0969 10.7857 13.2519 8.63072 13.2519 5.97229C13.2519 3.31415 11.0969 1.15918 8.43875 1.15918C5.78046 1.15918 3.62549 3.31415 3.62549 5.97229C3.62805 8.62958 5.78146 10.783 8.43875 10.7857ZM8.43875 2.06992C10.5939 2.06992 12.3413 3.81718 12.3413 5.97229C12.3413 8.12769 10.5939 9.87495 8.43875 9.87495C6.28349 9.87495 4.53623 8.12769 4.53623 5.97229C4.53879 3.81817 6.28448 2.07234 8.43875 2.06992Z" fill="#5E55E6"/>
<path d="M19.9593 11.7191C19.8741 11.6338 19.7587 11.5859 19.6383 11.5859C19.5178 11.5859 19.4023 11.6338 19.3172 11.7191L18.1287 12.9075L15.1962 15.8402C13.8267 13.391 11.2401 11.874 8.43408 11.874C4.1673 11.874 0.692871 15.3484 0.692871 19.615C0.693583 19.8662 0.897015 20.0698 1.14817 20.0705H12.4459L12.0723 21.1861C12.0166 21.3491 12.0589 21.5295 12.1817 21.6505C12.2678 21.7355 12.3839 21.783 12.5048 21.7827C12.5544 21.7818 12.6034 21.7741 12.6507 21.7599L15.8882 20.6806C15.8929 20.6806 15.8929 20.6806 15.8974 20.6761C15.9119 20.6721 15.9257 20.6658 15.9384 20.6578C15.9418 20.6574 15.9451 20.6558 15.9475 20.6533C15.9612 20.6443 15.9794 20.635 15.9931 20.6259C16.0068 20.617 16.0204 20.6031 16.034 20.5942C16.0385 20.5895 16.0432 20.5895 16.0432 20.585C16.0477 20.5805 16.0568 20.5759 16.0613 20.5667L20.9337 15.7081L22.1224 14.5197C22.2076 14.4344 22.2554 14.319 22.2554 14.1986C22.2554 14.0781 22.2076 13.9626 22.1224 13.8775L19.9593 11.7191ZM15.7516 19.6014L14.2353 18.085L18.4474 13.873L19.9638 15.3893L15.7516 19.6014ZM1.6217 19.155C1.85861 15.5989 4.82304 12.78 8.43864 12.78C11.0066 12.7837 13.3569 14.2236 14.5268 16.5096L13.27 17.7662L13.2518 17.7846C13.2472 17.789 13.2472 17.7937 13.2428 17.7937C13.2203 17.8223 13.2006 17.8527 13.1835 17.8847C13.1829 17.8882 13.1814 17.8913 13.1788 17.8937C13.1744 17.9075 13.1651 17.9212 13.1607 17.9349C13.1607 17.9393 13.1607 17.9393 13.1562 17.944L12.7509 19.1597H1.6217V19.155ZM13.7937 18.9274L14.9093 20.043L13.2335 20.6031L13.7937 18.9274ZM20.6103 14.7427L19.0941 13.2263L19.6359 12.6846L21.1524 14.2009L20.6103 14.7427Z" fill="#5E55E6"/>
</svg>
