<svg width="27" height="27" viewBox="0 0 27 27" fill="none" xmlns="http://www.w3.org/2000/svg">
<path d="M9.90633 12.662C13.0268 12.662 15.5565 10.1323 15.5565 7.01151C15.5565 3.89108 13.0268 1.36133 9.90633 1.36133C6.78573 1.36133 4.25598 3.89108 4.25598 7.01151C4.25899 10.1309 6.78691 12.6588 9.90633 12.662ZM9.90633 2.43046C12.4362 2.43046 14.4875 4.48159 14.4875 7.01151C14.4875 9.54176 12.4362 11.5929 9.90633 11.5929C7.37624 11.5929 5.32511 9.54176 5.32511 7.01151C5.32812 4.48276 7.37741 2.4333 9.90633 2.43046Z" fill="#C243FE"/>
<path d="M23.4305 13.7569C23.3305 13.6568 23.195 13.6006 23.0537 13.6006C22.9123 13.6006 22.7766 13.6568 22.6768 13.7569L21.2816 15.152L17.839 18.5947C16.2314 15.7196 13.1949 13.9387 9.90093 13.9387C4.89209 13.9387 0.813416 18.0174 0.813416 23.0261C0.814252 23.3209 1.05306 23.5599 1.3479 23.5607H14.6104L14.1719 24.8703C14.1065 25.0616 14.1562 25.2735 14.3004 25.4155C14.4014 25.5153 14.5377 25.571 14.6796 25.5707C14.7378 25.5697 14.7954 25.5607 14.8509 25.5439L18.6515 24.277C18.657 24.277 18.657 24.277 18.6622 24.2716C18.6792 24.2669 18.6954 24.2596 18.7103 24.2502C18.7143 24.2497 18.7182 24.2479 18.721 24.2449C18.7371 24.2343 18.7585 24.2235 18.7745 24.2128C18.7906 24.2022 18.8067 24.186 18.8225 24.1755C18.8279 24.17 18.8334 24.17 18.8334 24.1648C18.8386 24.1594 18.8493 24.1541 18.8547 24.1432L24.5744 18.4397L25.9698 17.0446C26.0698 16.9444 26.126 16.809 26.126 16.6677C26.126 16.5262 26.0698 16.3906 25.9698 16.2907L23.4305 13.7569ZM18.4911 23.01L16.711 21.23L21.6557 16.2854L23.4359 18.0654L18.4911 23.01ZM1.90378 22.4861C2.18189 18.3114 5.66187 15.0023 9.90628 15.0023C12.9208 15.0067 15.6799 16.6969 17.0532 19.3805L15.5779 20.8557L15.5565 20.8773C15.5511 20.8825 15.5511 20.888 15.5459 20.888C15.5195 20.9216 15.4964 20.9572 15.4764 20.9948C15.4757 20.9989 15.4738 21.0025 15.4708 21.0054C15.4656 21.0216 15.4548 21.0377 15.4496 21.0537C15.4496 21.0589 15.4496 21.0589 15.4442 21.0644L14.9685 22.4916H1.90378V22.4861ZM16.1926 22.2188L17.5022 23.5284L15.5351 24.186L16.1926 22.2188ZM24.1948 17.3063L22.4149 15.5263L23.0509 14.8903L24.8311 16.6703L24.1948 17.3063Z" fill="#C243FE"/>
</svg>
