<svg width="28" height="22" viewBox="0 0 28 22" fill="none" xmlns="http://www.w3.org/2000/svg">
<path d="M24.1509 7.21738C18.5278 1.59421 9.37905 1.59421 3.75588 7.21738L0 10.9728L3.84905 14.8218C6.6604 17.6332 10.3534 19.0393 14.0468 19.0393C17.7403 19.0393 21.4328 17.6337 24.2446 14.8218L28.0005 11.066L24.1509 7.21738ZM23.5753 14.1531C18.3211 19.4068 9.77209 19.4068 4.51784 14.1531L1.33757 10.9728L4.42466 7.88569C9.67892 2.63191 18.2279 2.63191 23.4822 7.88569L26.6624 11.066L23.5753 14.1531Z" fill="#D5D2FB"/>
<path d="M13.5139 7.22168C11.6883 7.22168 10.2031 8.70681 10.2031 10.5325C10.2031 10.7936 10.415 11.0055 10.6761 11.0055C10.9372 11.0055 11.1491 10.7936 11.1491 10.5325C11.1491 9.2285 12.2099 8.16763 13.5139 8.16763C13.775 8.16763 13.9869 7.95573 13.9869 7.69465C13.9869 7.43357 13.7755 7.22168 13.5139 7.22168Z" fill="#D5D2FB"/>
<path d="M13.987 4.85645C10.5968 4.85645 7.83838 7.61482 7.83838 11.0051C7.83838 14.3954 10.5968 17.1537 13.987 17.1537C17.3773 17.1537 20.1357 14.3954 20.1357 11.0051C20.1357 7.61482 17.3778 4.85645 13.987 4.85645ZM13.987 16.2078C11.1184 16.2078 8.78433 13.8737 8.78433 11.0051C8.78433 8.13651 11.1184 5.80239 13.987 5.80239C16.8556 5.80239 19.1897 8.13651 19.1897 11.0051C19.1897 13.8737 16.8561 16.2078 13.987 16.2078Z" fill="#D5D2FB"/>
<path d="M24 1L4 21" stroke="#D5D2FB"/>
</svg>
