<svg width="28" height="17" viewBox="0 0 28 17" fill="none" xmlns="http://www.w3.org/2000/svg">
<path d="M24.1509 4.21738C18.5278 -1.40579 9.37905 -1.40579 3.75588 4.21738L0 7.97279L3.84905 11.8218C6.6604 14.6332 10.3534 16.0393 14.0468 16.0393C17.7403 16.0393 21.4328 14.6337 24.2446 11.8218L28.0005 8.06596L24.1509 4.21738ZM23.5753 11.1531C18.3211 16.4068 9.77209 16.4068 4.51784 11.1531L1.33757 7.97279L4.42466 4.88569C9.67892 -0.368091 18.2279 -0.368091 23.4822 4.88569L26.6624 8.06596L23.5753 11.1531Z" fill="#D5D2FB"/>
<path d="M13.5139 4.22168C11.6883 4.22168 10.2031 5.70681 10.2031 7.53249C10.2031 7.79357 10.415 8.00546 10.6761 8.00546C10.9372 8.00546 11.1491 7.79357 11.1491 7.53249C11.1491 6.2285 12.2099 5.16763 13.5139 5.16763C13.775 5.16763 13.9869 4.95573 13.9869 4.69465C13.9869 4.43357 13.7755 4.22168 13.5139 4.22168Z" fill="#D5D2FB"/>
<path d="M13.987 1.85645C10.5968 1.85645 7.83838 4.61482 7.83838 8.00509C7.83838 11.3954 10.5968 14.1537 13.987 14.1537C17.3773 14.1537 20.1357 11.3954 20.1357 8.00509C20.1357 4.61482 17.3778 1.85645 13.987 1.85645ZM13.987 13.2078C11.1184 13.2078 8.78433 10.8737 8.78433 8.00509C8.78433 5.13651 11.1184 2.80239 13.987 2.80239C16.8556 2.80239 19.1897 5.13651 19.1897 8.00509C19.1897 10.8737 16.8561 13.2078 13.987 13.2078Z" fill="#D5D2FB"/>
</svg>
