<svg width="25" height="25" viewBox="0 0 25 25" fill="none" xmlns="http://www.w3.org/2000/svg">
<path d="M2.10639 21.6348L2.10634 21.6347C2.00587 21.4566 2.00808 21.2363 2.11429 21.0604L2.10639 21.6348ZM2.10639 21.6348C2.208 21.814 2.39855 21.9247 2.60404 21.9247H22.3957C22.6012 21.9247 22.7918 21.814 22.8933 21.6348L22.8934 21.6347M2.10639 21.6348L22.8934 21.6347M22.8934 21.6347C22.9938 21.4566 22.9917 21.2364 22.8855 21.0604L22.8934 21.6347ZM3.90388 18.0792L2.11436 21.0603L22.8854 21.0603L21.0959 18.0792C21.0959 18.0792 21.0959 18.0792 21.0959 18.0792C20.2755 16.7109 19.8415 15.1448 19.8415 13.5486V10.9372C19.8415 6.88977 16.5473 3.59551 12.4999 3.59551C8.4525 3.59551 5.15823 6.88977 5.15823 10.9372V13.5486C5.15823 15.1448 4.72422 16.7109 3.90388 18.0792ZM20.1164 18.666L20.1164 18.666L21.3876 20.783H3.61217L4.88235 18.666C5.80992 17.1207 6.29988 15.3514 6.29988 13.5486V10.9372C6.29988 7.5179 9.08062 4.73716 12.4999 4.73716C15.9191 4.73716 18.6999 7.5179 18.6999 10.9372V13.5486C18.6999 15.3514 19.1898 17.1207 20.1164 18.666Z" fill="#666666" stroke="#666666" stroke-width="0.1"/>
<path d="M10.4666 2.08335C10.4666 0.961989 11.3786 0.05 12.5 0.05C13.6213 0.05 14.5333 0.961989 14.5333 2.08335V4.16665C14.5333 4.42654 14.3224 4.6375 14.0625 4.6375C13.8026 4.6375 13.5916 4.42653 13.5916 4.1667V2.08335C13.5916 1.48074 13.1026 0.991699 12.5 0.991699C11.8974 0.991699 11.4083 1.48074 11.4083 2.08335V4.16665C11.4083 4.42654 11.1974 4.6375 10.9375 4.6375C10.6776 4.6375 10.4666 4.42653 10.4666 4.1667V2.08335Z" fill="#666666" stroke="#666666" stroke-width="0.1"/>
<path d="M14.0657 20.9474C14.2911 20.8184 14.5783 20.8921 14.711 21.116C14.9367 21.502 15.0562 21.9443 15.0562 22.3959C15.0541 23.8047 13.9088 24.95 12.5 24.95C11.0911 24.95 9.94583 23.8047 9.94578 22.3959C9.94578 21.9442 10.0653 21.502 10.291 21.1159C10.4226 20.8922 10.7086 20.8182 10.9364 20.9475C11.1603 21.0793 11.2355 21.3674 11.1047 21.5925C10.9647 21.8305 10.8885 22.1153 10.8885 22.3958C10.8885 23.2849 11.6119 24.0083 12.501 24.0083C13.3901 24.0083 14.1135 23.2849 14.1135 22.3958C14.1135 22.1153 14.0372 21.8304 13.8972 21.5924C13.7655 21.3684 13.8406 21.0794 14.0657 20.9474Z" fill="#666666" stroke="#666666" stroke-width="0.1"/>
</svg>
