<svg width="36" height="28" viewBox="0 0 36 28" fill="none" xmlns="http://www.w3.org/2000/svg">
<path d="M27.7814 9.24883C27.4443 4.13918 23.1798 0.0849609 17.9863 0.0849609C12.7915 0.0849609 8.52625 4.14089 8.19092 9.25238C3.54644 9.83664 0 13.7934 0 18.5412C0 23.71 4.20512 27.9152 9.37401 27.9152H23.6297C24.0351 27.9152 24.364 27.5864 24.364 27.1809C24.364 26.7754 24.0351 26.4466 23.6297 26.4466H9.37401C5.01493 26.4465 1.46861 22.9002 1.46861 18.5412C1.46861 14.3465 4.75254 10.8839 8.94468 10.6583C9.33435 10.6374 9.63958 10.3153 9.63958 9.92513C9.63958 9.91056 9.63921 9.89624 9.63836 9.88168C9.64937 5.28787 13.3899 1.55357 17.9863 1.55357C22.5834 1.55357 26.3246 5.28849 26.3342 9.88339C26.3336 9.89759 26.3331 9.91252 26.3331 9.92366C26.3331 10.3148 26.6397 10.6373 27.0302 10.657C31.2366 10.8701 34.5314 14.3332 34.5314 18.5411C34.5314 20.9308 33.4669 23.1673 31.6108 24.6772C31.2962 24.9331 31.2487 25.3956 31.5046 25.7101C31.7605 26.0247 32.223 26.0722 32.5375 25.8163C34.738 24.0263 36 21.3746 36 18.541C36 13.7786 32.4416 9.82036 27.7814 9.24883Z" fill="#9D9A9A"/>
<path d="M17.252 13.2656V22.6293C17.252 23.0347 17.5808 23.3636 17.9863 23.3636C18.3917 23.3636 18.7206 23.0347 18.7206 22.6293V13.2656C18.7206 12.8601 18.3917 12.5312 17.9863 12.5312C17.5808 12.5312 17.252 12.8601 17.252 13.2656Z" fill="#9D9A9A"/>
<path d="M22.1862 14.6274C22.3741 14.6274 22.562 14.5556 22.7054 14.4123C22.9922 14.1256 22.9922 13.6606 22.7054 13.3739L18.5056 9.17404C18.2188 8.8873 17.7538 8.8873 17.4672 9.17404L13.2673 13.3739C12.9806 13.6606 12.9806 14.1256 13.2673 14.4123C13.5541 14.6991 14.0191 14.6991 14.3057 14.4123L17.9863 10.7317L21.6669 14.4123C21.8103 14.5556 21.9983 14.6274 22.1862 14.6274Z" fill="#9D9A9A"/>
</svg>
