<svg width="31" height="24" viewBox="0 0 31 24" fill="none" xmlns="http://www.w3.org/2000/svg">
<path d="M30.3825 10.5439H29.5153V2.94312C29.5153 1.71093 28.4929 0.708496 27.2364 0.708496H2.986C1.33948 0.708496 0 2.0219 0 3.63631C0 3.64409 0.000544923 3.65163 0.00060547 3.6594C0.000484376 3.66332 0 3.66712 0 3.67104V20.1356C0 22.0941 1.62496 23.6874 3.62228 23.6874H28.8977C29.2388 23.6874 29.5153 23.4163 29.5153 23.0819V18.3581H30.3825C30.7235 18.3581 31 18.0869 31 17.7526V11.1494C31.0001 10.8151 30.7235 10.5439 30.3825 10.5439ZM2.986 1.91949H27.2364C27.812 1.91949 28.2803 2.37871 28.2803 2.94312V5.3533H2.986C2.02057 5.3533 1.23504 4.58312 1.23504 3.63637C1.23504 2.68968 2.02057 1.91949 2.986 1.91949ZM28.2803 22.4763H3.62228C2.30593 22.4763 1.23504 21.4263 1.23504 20.1356V6.00594C1.72735 6.35663 2.33227 6.5643 2.986 6.5643H28.2803V10.5439H24.7707C22.5736 10.5439 20.7861 12.2967 20.7861 14.451C20.7861 16.6053 22.5736 18.358 24.7707 18.358H28.2803V22.4763ZM29.765 17.147H24.7707C23.2545 17.147 22.0211 15.9376 22.0211 14.451C22.0211 12.9644 23.2546 11.7549 24.7707 11.7549H29.765V17.147Z" fill="#4EB200"/>
</svg>
