<svg width="108" height="98" viewBox="0 0 108 98" fill="none" xmlns="http://www.w3.org/2000/svg">
<path d="M82.5633 41.2968C82.5609 41.2768 82.5594 41.2565 82.5565 41.2367C82.5423 41.138 82.5235 41.0395 82.4969 40.9423C82.4966 40.9413 82.4961 40.9403 82.4959 40.9391C82.471 40.8482 82.4392 40.7585 82.4033 40.6698C82.393 40.6444 82.3818 40.62 82.3708 40.5951C82.3425 40.5311 82.3109 40.468 82.2767 40.406C82.2618 40.3788 82.2474 40.3517 82.2313 40.3251C82.2227 40.3107 82.2159 40.2958 82.2068 40.2813C82.1707 40.2239 82.1311 40.1699 82.091 40.1164C82.0835 40.1064 82.0774 40.0959 82.0698 40.0861C82.0087 40.0069 81.9427 39.9334 81.8736 39.8638C81.8606 39.8506 81.8464 39.8384 81.833 39.8256C81.7729 39.7677 81.7106 39.7135 81.6456 39.6624C81.629 39.6495 81.6129 39.6365 81.5957 39.6241C81.5088 39.5596 81.4191 39.4994 81.3255 39.4474L45.3278 18.9855L66.0541 5.93416L100.801 25.6848L86.1674 34.8997C85.0253 35.6186 84.6825 37.1274 85.4016 38.2692C86.1205 39.4112 87.6291 39.7541 88.7711 39.035L106.859 27.6454C107.586 27.1878 108.019 26.3817 108 25.5226C107.98 24.6635 107.511 23.8782 106.764 23.4535L67.1972 0.96277C66.4145 0.517578 65.4501 0.539569 64.6878 1.01921L39.2869 17.0141C39.2818 17.0173 39.2764 17.0207 39.2713 17.0239L26.5784 25.0166C26.5726 25.0202 26.5667 25.0239 26.5611 25.0275L1.14289 41.0334C0.415725 41.4911 -0.0174938 42.2972 0.00205362 43.1563C0.0213567 44.0154 0.490249 44.8007 1.23745 45.2254L40.8048 67.7161C41.1796 67.9294 41.596 68.0355 42.0121 68.0355C42.4648 68.0355 42.9169 67.9096 43.3139 67.6596L61.4016 56.2699C62.5437 55.551 62.8865 54.0422 62.1674 52.9004C61.4488 51.7583 59.9397 51.4153 58.7979 52.1346L41.9478 62.7449L7.20062 42.9938L27.9272 29.9422L64.9866 51.0075V78.907C64.9866 79.7969 65.4701 80.6161 66.2491 81.0462C66.6173 81.2495 67.0239 81.3504 67.43 81.3504C67.883 81.3504 68.3351 81.2246 68.7319 80.9746L81.4411 72.9717C82.1516 72.5243 82.5826 71.7436 82.5826 70.904V41.583C82.5826 41.5685 82.5802 41.5549 82.5797 41.5404C82.5782 41.4593 82.5729 41.3782 82.5633 41.2968ZM69.8734 74.4812V49.5861C69.8734 48.7072 69.4014 47.8963 68.6373 47.4621L32.6186 26.9884L40.6362 21.9396L75.3831 41.6905L72.3408 43.6061C71.1987 44.325 70.8559 45.8338 71.575 46.9756C72.0393 47.7135 72.8332 48.1174 73.6451 48.1174C74.0898 48.1174 74.5404 47.996 74.9445 47.7414L77.6956 46.0092V69.5555L69.8734 74.4812Z" fill="#CEFFAE"/>
<path d="M104.254 33.2834L86.1668 44.673C85.0248 45.3918 84.6819 46.9006 85.401 48.0424C85.8653 48.7804 86.6592 49.1843 87.4711 49.1843C87.9158 49.1843 88.3664 49.0628 88.7705 48.8082L106.858 37.4187C108 36.6998 108.343 35.191 107.624 34.0492C106.905 32.9072 105.396 32.5641 104.254 33.2834Z" fill="#CEFFAE"/>
<path d="M58.7968 61.9077L41.9467 72.518L3.65121 50.7503C2.47886 50.0837 0.986419 50.4932 0.319609 51.6671C-0.347201 52.8401 0.0630498 54.3318 1.23638 54.9987L40.8037 77.4894C41.1785 77.7027 41.5949 77.8087 42.011 77.8087C42.4637 77.8087 42.9158 77.6829 43.3128 77.4329L61.4005 66.0432C62.5426 65.3243 62.8854 63.8155 62.1663 62.6737C61.4477 61.5314 59.9386 61.1883 58.7968 61.9077Z" fill="#CEFFAE"/>
<path d="M104.254 43.0579L86.1668 54.4474C85.0248 55.1663 84.6819 56.6751 85.401 57.8169C85.8653 58.5548 86.6592 58.9587 87.4711 58.9587C87.9158 58.9587 88.3664 58.8373 88.7705 58.5827L106.858 47.1932C108 46.4743 108.343 44.9655 107.624 43.8237C106.905 42.6814 105.396 42.3386 104.254 43.0579Z" fill="#CEFFAE"/>
<path d="M58.7968 71.6811L41.9467 82.2915L3.65121 60.5237C2.47886 59.8572 0.986419 60.2667 0.319609 61.4405C-0.347201 62.6136 0.0630498 64.1053 1.23638 64.7721L40.8037 87.2628C41.1785 87.4762 41.5949 87.5822 42.011 87.5822C42.4637 87.5822 42.9158 87.4564 43.3128 87.2064L61.4005 75.8166C62.5426 75.0978 62.8854 73.589 62.1663 72.4471C61.4477 71.3046 59.9386 70.9618 58.7968 71.6811Z" fill="#CEFFAE"/>
<path d="M104.254 52.8312L86.1668 64.2207C85.0248 64.9396 84.6819 66.4484 85.401 67.5902C85.8653 68.3281 86.6592 68.732 87.4711 68.732C87.9158 68.732 88.3664 68.6106 88.7705 68.356L106.858 56.9664C108 56.2476 108.343 54.7388 107.624 53.597C106.905 52.4549 105.396 52.1121 104.254 52.8312Z" fill="#CEFFAE"/>
<path d="M58.7968 81.4555L41.9467 92.0659L3.65121 70.2981C2.47886 69.6316 0.986419 70.0411 0.319609 71.2149C-0.347201 72.388 0.0630498 73.8797 1.23638 74.5465L40.8037 97.0372C41.1785 97.2506 41.5949 97.3566 42.011 97.3566C42.4637 97.3566 42.9158 97.2308 43.3128 96.9808L61.4005 85.591C62.5426 84.8722 62.8854 83.3634 62.1663 82.2215C61.4477 81.0792 59.9386 80.7362 58.7968 81.4555Z" fill="#CEFFAE"/>
</svg>
