<svg width="94" height="91" viewBox="0 0 94 91" fill="none" xmlns="http://www.w3.org/2000/svg">
<g clip-path="url(#clip0)">
<path d="M62.7806 58.3599C60.5534 58.3599 58.7415 56.8417 58.7415 54.9757C58.7415 53.1095 60.5534 51.5913 62.7806 51.5913C65.0077 51.5913 66.8196 53.1095 66.8196 54.9757C66.8196 55.9571 67.6417 56.753 68.6555 56.753C69.6693 56.753 70.4915 55.9571 70.4915 54.9757C70.4915 51.7187 67.9847 48.9802 64.6165 48.2369V47.3125C64.6165 46.331 63.7944 45.5352 62.7806 45.5352C61.7668 45.5352 60.9446 46.331 60.9446 47.3125V48.2369C57.5764 48.9802 55.0696 51.7187 55.0696 54.9757C55.0696 58.8018 58.5287 61.9146 62.7806 61.9146C65.0077 61.9146 66.8196 63.4328 66.8196 65.299C66.8196 67.1652 65.0077 68.6834 62.7806 68.6834C60.5534 68.6834 58.7415 67.1652 58.7415 65.299C58.7415 64.3176 57.9194 63.5217 56.9056 63.5217C55.8918 63.5217 55.0696 64.3176 55.0696 65.299C55.0696 68.556 57.5764 71.2945 60.9446 72.0378V72.8056C60.9446 73.787 61.7668 74.5829 62.7806 74.5829C63.7944 74.5829 64.6165 73.787 64.6165 72.8056V72.0378C67.9847 71.2945 70.4915 68.556 70.4915 65.299C70.4915 61.4727 67.0324 58.3599 62.7806 58.3599Z" fill="#ABECFF"/>
<path d="M82.8892 47.7877C80.4909 44.1699 77.112 41.275 73.118 39.4162C72.2038 38.9907 71.1069 39.3633 70.6677 40.248C70.2284 41.1328 70.613 42.1946 71.5269 42.6199C78.4871 45.8589 82.9843 52.7797 82.9843 60.2513C82.9843 63.4484 82.1702 66.619 80.6304 69.4208C80.1542 70.2872 80.4936 71.3636 81.3888 71.8246C81.6635 71.9661 81.9587 72.0333 82.2495 72.0333C82.9064 72.0333 83.5418 71.691 83.8719 71.0904C85.6934 67.7767 86.6561 64.0285 86.6561 60.2513C86.6561 55.815 85.3535 51.5052 82.8892 47.7877Z" fill="#ABECFF"/>
<path d="M65.6665 37.1467L65.5429 37.1465C64.5291 37.1465 63.707 37.9422 63.707 38.9238C63.707 39.9054 64.5291 40.7012 65.5429 40.7012L65.6492 40.7013C65.6521 40.7013 65.6549 40.7013 65.658 40.7013C66.668 40.7013 67.489 39.9111 67.4938 38.9324C67.4984 37.9507 66.6803 37.1513 65.6665 37.1467Z" fill="#ABECFF"/>
<path d="M54.0512 77.884C47.0912 74.6448 42.5941 67.7241 42.5941 60.2527C42.5941 57.0556 43.4081 53.885 44.9479 51.0832C45.4242 50.2167 45.0847 49.1404 44.1895 48.6793C43.2947 48.2183 42.1825 48.5469 41.7064 49.4135C39.885 52.7274 38.9222 56.4755 38.9222 60.2527C38.9222 64.6889 40.2248 68.9986 42.6892 72.7163C45.0875 76.334 48.4663 79.229 52.4604 81.0879C52.7169 81.2073 52.9879 81.2637 53.2546 81.2637C53.9383 81.2637 54.5945 80.8924 54.9106 80.2561C55.3496 79.3713 54.9652 78.3094 54.0512 77.884Z" fill="#ABECFF"/>
<path d="M60.0355 79.8031L59.9292 79.8027C58.9106 79.801 58.0896 80.5899 58.085 81.5717C58.0802 82.5534 58.8987 83.3528 59.9125 83.3574L60.0355 83.3578C61.0493 83.3578 61.8714 82.5619 61.8714 81.5804C61.8714 80.599 61.0493 79.8031 60.0355 79.8031Z" fill="#ABECFF"/>
<path d="M71.1258 34.117C70.9024 33.6275 70.6286 33.1662 70.3101 32.7383H75.0898C79.7464 32.7383 83.5351 29.255 83.5351 24.9737C83.5351 20.6923 79.7464 17.209 75.0898 17.209H60.3876C61.3223 15.9596 61.871 14.448 61.871 12.8203C61.871 8.53895 58.0824 5.05566 53.4257 5.05566H8.44536C3.78869 5.05566 6.10352e-05 8.53895 6.10352e-05 12.8203C6.10352e-05 17.1017 3.78869 20.5849 8.44536 20.5849H23.1475C22.2128 21.8344 21.6641 23.346 21.6641 24.9737C21.6641 26.6014 22.2127 28.1129 23.1475 29.3624H18.3594C13.7027 29.3624 9.91411 32.8457 9.91411 37.127C9.91411 39.5859 11.1651 41.7801 13.1114 43.2037C11.1651 44.6273 9.91411 46.8215 9.91411 49.2804C9.91411 51.7392 11.1651 53.9334 13.1114 55.357C11.1651 56.7807 9.91411 58.9749 9.91411 61.4337C9.91411 63.8926 11.1651 66.0868 13.1114 67.5104C11.1651 68.934 9.91411 71.1282 9.91411 73.5871C9.91411 77.8684 13.7027 81.3517 18.3594 81.3517H39.9959C45.6957 86.9569 53.8043 90.4669 62.7892 90.4669C79.9989 90.4669 94.0001 77.5941 94.0001 61.7715C94.0001 48.6025 84.3008 37.4786 71.1258 34.117ZM75.0898 20.5849C77.7219 20.5849 79.8632 22.5538 79.8632 24.9737C79.8632 27.3935 77.7219 29.3624 75.0898 29.3624H63.3398H30.1094C27.4772 29.3624 25.336 27.3935 25.336 24.9737C25.336 22.5538 27.4772 20.5849 30.1094 20.5849H75.0898ZM8.44536 17.209C5.81318 17.209 3.67193 15.2402 3.67193 12.8203C3.67193 10.4004 5.81318 8.4316 8.44536 8.4316H53.4257C56.0579 8.4316 58.1992 10.4004 58.1992 12.8203C58.1992 15.2402 56.0579 17.209 53.4257 17.209H8.44536ZM18.3594 32.7383H63.3398C64.0793 32.7383 64.7874 32.8963 65.4227 33.1792C64.5543 33.1122 63.6763 33.0761 62.7892 33.0761C54.1704 33.0761 46.3567 36.305 40.7031 41.5157H18.3594C15.7274 41.5157 13.586 39.5469 13.586 37.127C13.586 34.7071 15.7274 32.7383 18.3594 32.7383ZM18.3594 44.8917H37.566C35.4819 47.517 33.8705 50.478 32.8471 53.6691H18.3594C15.7272 53.6691 13.586 51.7004 13.586 49.2804C13.586 46.8605 15.7272 44.8917 18.3594 44.8917ZM18.3594 57.045H32.0041C31.7256 58.5833 31.5783 60.1617 31.5783 61.7715C31.5783 63.1465 31.6864 64.4986 31.8908 65.8224H18.3594C15.7272 65.8224 13.586 63.8538 13.586 61.4337C13.586 59.0137 15.7272 57.045 18.3594 57.045ZM18.3594 77.9758C15.7272 77.9758 13.586 76.0071 13.586 73.5871C13.586 71.167 15.7272 69.1984 18.3594 69.1984H32.6404C33.5668 72.3739 35.0717 75.3335 37.0454 77.9758H18.3594ZM62.7892 87.091C47.6042 87.091 35.2502 75.7327 35.2502 61.7715C35.2502 47.8103 47.6042 36.452 62.7892 36.452C77.9742 36.452 90.3282 47.8103 90.3282 61.7715C90.3282 75.7327 77.9742 87.091 62.7892 87.091Z" fill="#ABECFF"/>
</g>
<defs>
<clipPath id="clip0">
<rect width="94" height="91" fill="white"/>
</clipPath>
</defs>
</svg>
